#tb 0: 1/25
0,          0,          0,        1,   599040, 0xd9b73cbe
0,          1,          1,        1,   599040, 0xd9b73cbe
0,          2,          2,        1,   599040, 0x93a3fabf
0,          3,          3,        1,   599040, 0x245a522e
0,          4,          4,        1,   599040, 0xff1e8bb4
0,          5,          5,        1,   599040, 0x03390b9a
0,          6,          6,        1,   599040, 0x27030635
0,          7,          7,        1,   599040, 0x431c6312
0,          8,          8,        1,   599040, 0xeddc5f83
0,          9,          9,        1,   599040, 0x34168a1e
0,         10,         10,        1,   599040, 0xf4d795a4
0,         11,         11,        1,   599040, 0xe716ea67
0,         12,         12,        1,   599040, 0xf3b8446d
0,         13,         13,        1,   599040, 0x082d12d0
0,         14,         14,        1,   599040, 0x68e12e99
0,         15,         15,        1,   599040, 0x3fd079df
0,         16,         16,        1,   599040, 0x6087fb37
0,         17,         17,        1,   599040, 0x12c2142e
0,         18,         18,        1,   599040, 0xb3bcf682
0,         19,         19,        1,   599040, 0xcec84ee7
0,         20,         20,        1,   599040, 0x12a4fb43
0,         21,         21,        1,   599040, 0x85749580
0,         22,         22,        1,   599040, 0x6df99536
0,         23,         23,        1,   599040, 0x377282a6
0,         24,         24,        1,   599040, 0xe296f874
0,         25,         25,        1,   599040, 0x1b29cd1a
0,         26,         26,        1,   599040, 0x1cf633c9
0,         27,         27,        1,   599040, 0xf8cd2544
0,         28,         28,        1,   599040, 0x61c05325
0,         29,         29,        1,   599040, 0x87646c89
0,         30,         30,        1,   599040, 0x5b840711
0,         31,         31,        1,   599040, 0x5bc4c181
0,         32,         32,        1,   599040, 0x91ce695a
0,         33,         33,        1,   599040, 0xed54dcca
0,         34,         34,        1,   599040, 0xc41fef8e
0,         35,         35,        1,   599040, 0x9da8830b
0,         36,         36,        1,   599040, 0xb76cec12
0,         37,         37,        1,   599040, 0xef9661f0
0,         38,         38,        1,   599040, 0xe1d38227
0,         39,         39,        1,   599040, 0xce440134
0,         40,         40,        1,   599040, 0x41a54dd1
0,         41,         41,        1,   599040, 0xdd83da8e
0,         42,         42,        1,   599040, 0xf9cee595
0,         43,         43,        1,   599040, 0x6f5db54d
0,         44,         44,        1,   599040, 0x00b6f064
0,         45,         45,        1,   599040, 0xfbaa978d
0,         46,         46,        1,   599040, 0x2c9ee1d7
0,         47,         47,        1,   599040, 0xe8c4be1f
0,         48,         48,        1,   599040, 0x132a260f
0,         49,         49,        1,   599040, 0x8571a213
